<svg width="24" height="24" viewBox="0 0 24 24" fill="none" xmlns="http://www.w3.org/2000/svg">
<path fill-rule="evenodd" clip-rule="evenodd" d="M12.4252 5.57144C11.4964 5.56902 10.5802 5.78602 9.75111 6.20478C9.75034 6.20517 9.74956 6.20556 9.74879 6.20595C9.74794 6.20638 9.74708 6.20681 9.74623 6.20723C8.74971 6.70528 7.91153 7.47094 7.32557 8.41844C6.73961 9.36594 6.42903 10.4579 6.42859 11.5719L6.42859 11.5748C6.42617 12.5036 6.64318 13.4198 7.06193 14.2489C7.21649 14.5549 7.24245 14.9099 7.13404 15.2351L6.31863 17.6814L8.76487 16.866C9.09008 16.7576 9.44512 16.7835 9.75111 16.9381C10.5802 17.3568 11.4964 17.5738 12.4252 17.5714L12.4281 17.5714C13.5421 17.571 14.6341 17.2604 15.5816 16.6744C16.5291 16.0885 17.2947 15.2503 17.7928 14.2538C17.7936 14.2521 17.7944 14.2505 17.7952 14.2489C18.214 13.4198 18.431 12.5036 18.4286 11.5748L18.4286 11.5714V11.18C18.3399 9.72193 17.7207 8.34621 16.6873 7.31274C15.6538 6.27927 14.2781 5.66012 12.82 5.57144H12.4286L12.4252 5.57144ZM12.4302 3.00002C11.0979 2.99682 9.78363 3.30801 8.59423 3.9083C7.17169 4.61982 5.97517 5.71314 5.13857 7.06595C4.30174 8.41912 3.85806 9.9785 3.85718 11.5695C3.85438 12.7178 4.08514 13.8528 4.53327 14.9059L3.06601 19.3077C2.91201 19.7697 3.03226 20.279 3.37661 20.6234C3.72097 20.9677 4.23032 21.088 4.69232 20.934L9.09408 19.4667C10.1472 19.9149 11.2822 20.1456 12.4305 20.1428C14.0215 20.1419 15.5809 19.6983 16.934 18.8614C18.2868 18.0249 19.3801 16.8284 20.0916 15.406C20.692 14.2165 21.0032 12.9022 21 11.5698V11.1429C21 11.1192 20.9993 11.0956 20.998 11.072C20.882 8.96943 19.9946 6.9835 18.5055 5.49447C17.0165 4.00545 15.0306 3.11798 12.928 3.00198C12.9044 3.00068 12.8808 3.00002 12.8571 3.00002H12.4302Z" fill="black"/>
</svg>
