<svg width="24" height="24" viewBox="0 0 24 24" fill="none" xmlns="http://www.w3.org/2000/svg">
<path d="M10.3711 4.79043C11.9258 4.43916 13.5524 4.59987 15.0083 5.24858C15.6663 5.54177 16.4374 5.24603 16.7306 4.58802C17.0238 3.93001 16.728 3.15892 16.07 2.86572C14.1003 1.98806 11.8996 1.77063 9.79619 2.24587C7.69278 2.72111 5.79935 3.86354 4.39828 5.5028C2.99721 7.14205 2.16356 9.19029 2.02168 11.342C1.87979 13.4938 2.43727 15.6338 3.61096 17.4428C4.78465 19.2518 6.51168 20.633 8.53447 21.3803C10.5573 22.1276 12.7674 22.201 14.8354 21.5896C16.9033 20.9782 18.7182 19.7147 20.0093 17.9875C21.3005 16.2604 21.9988 14.1614 22 12.005V11.205C22 10.4846 21.416 9.90063 20.6957 9.90063C19.9753 9.90063 19.3913 10.4846 19.3913 11.205V12.0042C19.3904 13.5981 18.8743 15.149 17.9199 16.4256C16.9656 17.7022 15.6242 18.6361 14.0957 19.088C12.5672 19.5399 10.9336 19.4856 9.43852 18.9333C7.94342 18.3809 6.66692 17.36 5.79941 16.0229C4.93189 14.6858 4.51985 13.1041 4.62472 11.5137C4.72959 9.92326 5.34576 8.40934 6.38134 7.19772C7.41691 5.9861 8.81641 5.14169 10.3711 4.79043Z" fill="black"/>
<path d="M21.6184 5.97034C22.1276 5.46071 22.1272 4.63484 21.6175 4.12571C21.1079 3.61659 20.282 3.617 19.7729 4.12664L11.9996 11.9077L10.3136 10.2218C9.80426 9.71245 8.97839 9.71245 8.46901 10.2218C7.95963 10.7312 7.95963 11.5571 8.46901 12.0665L11.0777 14.6751C11.3224 14.9198 11.6543 15.0573 12.0003 15.0572C12.3464 15.0571 12.6782 14.9195 12.9228 14.6747L21.6184 5.97034Z" fill="black"/>
</svg>
