<svg width="48" height="48" viewBox="0 0 48 48" fill="none" xmlns="http://www.w3.org/2000/svg">
<path d="M19.2874 39.647C18.4397 39.637 17.6287 39.2997 17.024 38.7055L4.41484 26.2266C4.28332 26.0951 4.17899 25.9389 4.10781 25.7671C4.03664 25.5952 4 25.4111 4 25.2251C4 25.0391 4.03664 24.8549 4.10781 24.683C4.17899 24.5112 4.28332 24.3551 4.41484 24.2235C4.54637 24.092 4.7025 23.9877 4.87435 23.9165C5.04619 23.8453 5.23037 23.8087 5.41637 23.8087C5.60237 23.8087 5.78654 23.8453 5.95839 23.9165C6.13023 23.9877 6.28637 24.092 6.41789 24.2235L18.967 36.7225C19.062 36.8105 19.188 36.8573 19.3175 36.8527C19.3843 36.8512 19.4499 36.8341 19.509 36.8028C19.5681 36.7715 19.6191 36.7269 19.658 36.6725L41.5713 8.8001C41.8113 8.54217 42.1395 8.38403 42.4908 8.35712C42.8421 8.33022 43.1906 8.43653 43.467 8.65491C43.7435 8.87329 43.9276 9.18773 43.9827 9.53567C44.0379 9.88362 43.96 10.2396 43.7646 10.5327L21.8513 38.4051C21.5671 38.767 21.2096 39.0647 20.8023 39.2787C20.395 39.4927 19.947 39.6182 19.4877 39.647H19.2874Z" fill="black"/>
</svg>
