<svg width="48" height="48" viewBox="0 0 48 48" fill="none" xmlns="http://www.w3.org/2000/svg">
<path d="M23.9762 33.43C23.5848 33.433 23.1966 33.3576 22.8347 33.2084C22.4727 33.0591 22.1443 32.839 21.8686 32.561L6.3962 16.9387C6.13791 16.6738 5.99543 16.3171 6.00011 15.9472C6.00479 15.5772 6.15625 15.2243 6.42117 14.966C6.68609 14.7077 7.04276 14.5652 7.41272 14.5699C7.78269 14.5746 8.13564 14.726 8.39393 14.9909L23.8264 30.5633C23.8671 30.6012 23.9206 30.6223 23.9762 30.6223C24.0319 30.6223 24.0854 30.6012 24.1261 30.5633L39.5885 14.9909C39.8534 14.726 40.2127 14.5772 40.5874 14.5772C40.962 14.5772 41.3213 14.726 41.5863 14.9909C41.8512 15.2558 42 15.6152 42 15.9898C42 16.3644 41.8512 16.7238 41.5863 16.9887L26.0839 32.561C25.8082 32.839 25.4798 33.0591 25.1178 33.2084C24.7559 33.3576 24.3677 33.433 23.9762 33.43Z" fill="black"/>
</svg>
