<svg width="48" height="48" viewBox="0 0 48 48" fill="none" xmlns="http://www.w3.org/2000/svg">
<path d="M32.0328 41.9981C31.8477 42.003 31.6635 41.9701 31.4916 41.9013C31.3196 41.8325 31.1635 41.7294 31.0328 41.5981L15.4328 26.1081C14.8771 25.5465 14.5654 24.7882 14.5654 23.9981C14.5654 23.208 14.8771 22.4498 15.4328 21.8881L31.0628 6.39811C31.3281 6.13953 31.6851 5.99689 32.0555 6.00158C32.4259 6.00627 32.7793 6.1579 33.0378 6.42311C33.2964 6.68833 33.4391 7.04541 33.4344 7.41579C33.4297 7.78617 33.2781 8.13953 33.0128 8.39811L17.3828 23.8481C17.363 23.8676 17.3474 23.891 17.337 23.9168C17.3267 23.9426 17.3219 23.9703 17.3228 23.9981C17.3231 24.0539 17.3445 24.1075 17.3828 24.1481L33.0128 39.6281C33.2073 39.8237 33.3392 40.0727 33.3917 40.3434C33.4443 40.6142 33.4151 40.8944 33.3078 41.1486C33.2006 41.4027 33.0202 41.6191 32.7896 41.7704C32.559 41.9217 32.2886 42.001 32.0128 41.9981H32.0328Z" fill="black"/>
</svg>
