<svg width="24" height="24" viewBox="0 0 24 24" fill="none" xmlns="http://www.w3.org/2000/svg">
<path fill-rule="evenodd" clip-rule="evenodd" d="M12.8504 2.31541C12.3614 1.89486 11.6385 1.89486 11.1495 2.31541L2.45382 9.79367C1.90765 10.2634 1.84566 11.0869 2.31537 11.6331C2.67643 12.0529 3.24656 12.1867 3.73907 12.0127V18.9565C3.73907 19.7637 4.05973 20.5378 4.63049 21.1086C5.20125 21.6794 5.97537 22 6.78255 22H17.2173C18.0245 22 18.7986 21.6794 19.3694 21.1086C19.9402 20.5378 20.2608 19.7637 20.2608 18.9565V12.0127C20.7533 12.1867 21.3235 12.0529 21.6846 11.6331C22.1543 11.0869 22.0923 10.2634 21.5461 9.79367L12.8504 2.31541ZM17.6521 9.88556L12 5.0247L6.34777 9.88559V18.9565C6.34777 19.0719 6.39358 19.1824 6.47512 19.264C6.55665 19.3455 6.66724 19.3913 6.78255 19.3913H8.08692V12C8.08692 11.2796 8.67089 10.6957 9.39127 10.6957H14.6087C15.329 10.6957 15.913 11.2796 15.913 12V19.3913H17.2173C17.3326 19.3913 17.4432 19.3455 17.5248 19.264C17.6063 19.1824 17.6521 19.0719 17.6521 18.9565V9.88556ZM10.6956 19.3913V13.3043H13.3043V19.3913H10.6956Z" fill="black"/>
</svg>
