<svg width="24" height="24" viewBox="0 0 24 24" fill="none" xmlns="http://www.w3.org/2000/svg">
<path fill-rule="evenodd" clip-rule="evenodd" d="M15.9198 17.738C14.5779 18.7116 12.9274 19.2857 11.1428 19.2857C6.64568 19.2857 3 15.64 3 11.1428C3 6.64568 6.64568 3 11.1428 3C15.64 3 19.2857 6.64568 19.2857 11.1428C19.2857 12.9274 18.7116 14.5779 17.738 15.9198L20.6234 18.8052C21.1255 19.3073 21.1255 20.1213 20.6234 20.6234C20.1213 21.1255 19.3073 21.1255 18.8052 20.6234L15.9198 17.738ZM5.57143 11.1428C5.57143 8.06584 8.06584 5.57143 11.1428 5.57143C14.2199 5.57143 16.7143 8.06584 16.7143 11.1428C16.7143 12.6338 16.1286 13.988 15.1748 14.9879C15.1409 15.0155 15.1081 15.045 15.0766 15.0766C15.045 15.1081 15.0155 15.1409 14.9879 15.1748C13.988 16.1286 12.6338 16.7143 11.1428 16.7143C8.06584 16.7143 5.57143 14.2199 5.57143 11.1428Z" fill="black"/>
</svg>
