<svg width="48" height="48" viewBox="0 0 48 48" fill="none" xmlns="http://www.w3.org/2000/svg">
<path d="M41.5614 39.6122L31.1298 29.1808C33.442 26.3683 34.5836 22.7741 34.318 19.1429C34.0525 15.5116 32.4002 12.1217 29.7034 9.67547C27.0067 7.22922 23.4722 5.91416 19.8322 6.00274C16.1923 6.09132 12.7259 7.57675 10.1514 10.1513C7.57679 12.7258 6.09132 16.1921 6.00274 19.8319C5.91416 23.4718 7.22925 27.0062 9.67555 29.7029C12.1218 32.3996 15.5118 34.0519 19.1431 34.3174C22.7745 34.583 26.3687 33.4414 29.1813 31.1292L39.6129 41.5606C39.7402 41.6987 39.8947 41.8089 40.0667 41.8843C40.2387 41.9596 40.4244 41.9985 40.6121 41.9985C40.7999 41.9985 40.9856 41.9596 41.1576 41.8843C41.3296 41.8089 41.4841 41.6987 41.6113 41.5606C41.7384 41.4307 41.8381 41.2766 41.9045 41.1074C41.9709 40.9383 42.0027 40.7575 41.9981 40.5759C41.9934 40.3942 41.9524 40.2153 41.8774 40.0498C41.8024 39.8843 41.6949 39.7355 41.5614 39.6122ZM8.76768 20.1782C8.76768 17.919 9.43776 15.7106 10.6931 13.8322C11.9485 11.9539 13.7328 10.4901 15.8203 9.62602C17.9077 8.76192 20.2046 8.53633 22.4203 8.97781C24.636 9.41929 26.671 10.508 28.2678 12.1062C29.8646 13.7044 30.9516 15.7403 31.3911 17.9563C31.8307 20.1724 31.6031 22.469 30.7371 24.5556C29.8712 26.6423 28.4058 28.4253 26.5263 29.679C24.6469 30.9327 22.4378 31.6008 20.1785 31.5988C17.1513 31.5962 14.2489 30.3918 12.1092 28.2503C9.96957 26.1088 8.76768 23.2054 8.76768 20.1782Z" fill="black"/>
</svg>
