<svg width="48" height="48" viewBox="0 0 48 48" fill="none" xmlns="http://www.w3.org/2000/svg">
<path d="M12.05 31.8999L14.05 29.8999C11.6142 28.1525 9.40401 26.1103 7.47 23.8199C9.54 21.3599 16.27 14.1199 24 14.1199C25.6753 14.1396 27.334 14.4544 28.9 15.0499L31 12.9299C28.7969 11.9408 26.4147 11.4133 24 11.3799C13.33 11.3799 5 22.5499 4.6 22.9999L4 23.8199L4.6 24.6299C6.73093 27.3899 9.23873 29.8371 12.05 31.8999Z" fill="black"/>
<path d="M43.4 22.9999C41.2786 20.2601 38.7884 17.827 36 15.7699L34 17.7699C36.439 19.5172 38.6495 21.5631 40.58 23.8599C38.5 26.3299 31.77 33.5699 24.04 33.5699C22.3647 33.5501 20.706 33.2353 19.14 32.6399L17 34.7399C19.2024 35.7321 21.5847 36.263 24 36.2999C34.67 36.2999 43 25.1299 43.4 24.6499L44 23.8399L43.4 22.9999Z" fill="black"/>
<path d="M20 23.9999C19.9952 23.9433 19.9952 23.8864 20 23.8299C20.0024 22.7633 20.4224 21.74 21.1701 20.9792C21.9177 20.2185 22.9336 19.7808 24 19.7599H24.17L26.47 17.4699C25.4372 17.0635 24.3206 16.916 23.2176 17.0404C22.1147 17.1649 21.059 17.5574 20.1427 18.1837C19.2264 18.81 18.4773 19.6511 17.9609 20.6336C17.4445 21.616 17.1764 22.71 17.18 23.8199C17.1804 24.6622 17.3399 25.4968 17.65 26.2799L20 23.9999Z" fill="black"/>
<path d="M28.05 23.6599C28.0549 23.7198 28.0549 23.78 28.05 23.8399C28.05 24.9159 27.624 25.9481 26.865 26.7108C26.1061 27.4735 25.076 27.9046 24 27.9099H23.83L21.53 30.1999C22.7616 30.6843 24.1079 30.7989 25.4036 30.5294C26.6994 30.2599 27.8884 29.6182 28.8247 28.6829C29.7611 27.7476 30.4042 26.5593 30.6751 25.2639C30.9461 23.9684 30.8331 22.6221 30.35 21.3899L28.05 23.6599Z" fill="black"/>
<path d="M7.54 41.6699C7.35464 41.6766 7.16992 41.6445 6.9977 41.5756C6.82548 41.5068 6.66958 41.4026 6.54 41.2699C6.4112 41.1433 6.30889 40.9923 6.23906 40.8258C6.16922 40.6593 6.13326 40.4805 6.13326 40.2999C6.13326 40.1193 6.16922 39.9405 6.23906 39.774C6.30889 39.6074 6.4112 39.4565 6.54 39.3299L39.49 6.39988C39.7483 6.14462 40.0968 6.00146 40.46 6.00146C40.8232 6.00146 41.1717 6.14462 41.43 6.39988C41.5588 6.52646 41.6611 6.67743 41.7309 6.84397C41.8008 7.01051 41.8367 7.18929 41.8367 7.36988C41.8367 7.55047 41.8008 7.72926 41.7309 7.8958C41.6611 8.06234 41.5588 8.2133 41.43 8.33988L8.51 41.2699C8.38286 41.3975 8.23164 41.4985 8.06513 41.5672C7.89861 41.6359 7.72011 41.6708 7.54 41.6699Z" fill="black"/>
</svg>
