<svg width="24" height="24" viewBox="0 0 24 24" fill="none" xmlns="http://www.w3.org/2000/svg">
<path d="M15.531 8.46901C16.0404 8.97839 16.0404 9.80426 15.531 10.3136L13.8446 12L15.531 13.6864C16.0404 14.1958 16.0404 15.0216 15.531 15.531C15.0216 16.0404 14.1958 16.0404 13.6864 15.531L12 13.8446L10.3136 15.531C9.80426 16.0404 8.97839 16.0404 8.46901 15.531C7.95963 15.0216 7.95963 14.1958 8.46901 13.6864L10.1554 12L8.46901 10.3136C7.95963 9.80426 7.95963 8.97839 8.46901 8.46901C8.97839 7.95963 9.80426 7.95963 10.3136 8.46901L12 10.1554L13.6864 8.46901C14.1958 7.95963 15.0216 7.95963 15.531 8.46901Z" fill="black"/>
<path fill-rule="evenodd" clip-rule="evenodd" d="M2 12C2 6.47715 6.47715 2 12 2C17.5228 2 22 6.47715 22 12C22 17.5228 17.5228 22 12 22C6.47715 22 2 17.5228 2 12ZM12 4.6087C7.9179 4.6087 4.6087 7.9179 4.6087 12C4.6087 16.0821 7.9179 19.3913 12 19.3913C16.0821 19.3913 19.3913 16.0821 19.3913 12C19.3913 7.9179 16.0821 4.6087 12 4.6087Z" fill="black"/>
</svg>
