<svg width="24" height="24" viewBox="0 0 24 24" fill="none" xmlns="http://www.w3.org/2000/svg">
<path d="M17.6485 8.04853C18.1172 7.5799 18.1172 6.8201 17.6485 6.35147C17.1799 5.88284 16.4201 5.88284 15.9515 6.35147L12 10.3029L8.04853 6.35147C7.5799 5.88284 6.8201 5.88284 6.35147 6.35147C5.88284 6.8201 5.88284 7.5799 6.35147 8.04853L10.3029 12L6.35147 15.9515C5.88284 16.4201 5.88284 17.1799 6.35147 17.6485C6.8201 18.1172 7.5799 18.1172 8.04853 17.6485L12 13.6971L15.9515 17.6485C16.4201 18.1172 17.1799 18.1172 17.6485 17.6485C18.1172 17.1799 18.1172 16.4201 17.6485 15.9515L13.6971 12L17.6485 8.04853Z" fill="black"/>
</svg>
