<svg width="24" height="24" viewBox="0 0 24 24" fill="none" xmlns="http://www.w3.org/2000/svg">
<path fill-rule="evenodd" clip-rule="evenodd" d="M6.05365 2.831C7.63545 2.30374 9.73771 2 12 2C14.2623 2 16.3646 2.30374 17.9464 2.831C18.7304 3.09236 19.459 3.43233 20.0184 3.87317C20.5631 4.30243 21.1304 4.9819 21.1304 5.91304V18.087C21.1304 19.0144 20.5697 19.694 20.0248 20.1258C19.4667 20.568 18.7396 20.9084 17.9565 21.1698C16.3768 21.6972 14.274 22 12 22C9.72596 22 7.62317 21.6972 6.04348 21.1698C5.26038 20.9084 4.53326 20.568 3.97525 20.1258C3.43026 19.694 2.86957 19.0144 2.86957 18.087V5.91305C2.86957 4.98191 3.43689 4.30243 3.98157 3.87317C4.54096 3.43233 5.26957 3.09236 6.05365 2.831ZM5.60785 5.91304C5.84266 5.73145 6.25677 5.5131 6.87859 5.30583C8.12929 4.88893 9.94007 4.6087 12 4.6087C14.0599 4.6087 15.8707 4.88893 17.1214 5.30583C17.7432 5.5131 18.1573 5.73145 18.3922 5.91304C18.1573 6.09463 17.7432 6.31298 17.1214 6.52026C15.8707 6.93715 14.0599 7.21739 12 7.21739C9.94007 7.21739 8.12929 6.93715 6.87859 6.52026C6.25677 6.31298 5.84266 6.09463 5.60785 5.91304ZM5.47826 14.8756V17.976C5.50101 18.0004 5.53787 18.0357 5.59541 18.0812C5.82544 18.2635 6.23962 18.4851 6.86957 18.6954C8.11597 19.1115 9.92622 19.3913 12 19.3913C14.0738 19.3913 15.884 19.1115 17.1304 18.6954C17.7604 18.4851 18.1746 18.2635 18.4046 18.0812C18.4621 18.0357 18.499 18.0004 18.5217 17.976V14.8756C18.3378 14.9497 18.1489 15.0187 17.9565 15.0829C16.3768 15.6103 14.274 15.9131 12 15.9131C9.72596 15.9131 7.62317 15.6103 6.04348 15.0829C5.85114 15.0187 5.66218 14.9497 5.47826 14.8756ZM18.5217 11.889C18.499 11.9135 18.4621 11.9487 18.4046 11.9943C18.1746 12.1766 17.7604 12.3982 17.1304 12.6085C15.884 13.0246 14.0738 13.3044 12 13.3044C9.92622 13.3044 8.11597 13.0246 6.86957 12.6085C6.23962 12.3982 5.82544 12.1766 5.59541 11.9943C5.53787 11.9487 5.50101 11.9135 5.47826 11.889V8.78418C5.66542 8.85961 5.8578 8.9298 6.05365 8.99508C7.63545 9.52235 9.73771 9.82609 12 9.82609C14.2623 9.82609 16.3646 9.52235 17.9464 8.99508C18.1422 8.9298 18.3346 8.85961 18.5217 8.78418V11.889ZM18.5543 17.9347C18.5546 17.9348 18.5531 17.9376 18.5491 17.9433C18.552 17.9375 18.554 17.9347 18.5543 17.9347ZM5.4457 17.9347C5.44598 17.9347 5.44799 17.9375 5.45088 17.9433C5.44686 17.9376 5.44542 17.9348 5.4457 17.9347Z" fill="black"/>
</svg>
