<svg width="24" height="24" viewBox="0 0 24 24" fill="none" xmlns="http://www.w3.org/2000/svg">
<path fill-rule="evenodd" clip-rule="evenodd" d="M18.1397 2.38203C17.6303 1.87266 16.8045 1.87266 16.2951 2.38203L7.59944 11.0777C7.35483 11.3223 7.21741 11.6541 7.21741 12V15.4783C7.21741 16.1986 7.80138 16.7826 8.52176 16.7826H12C12.346 16.7826 12.6777 16.6452 12.9223 16.4006L21.618 7.70492C22.1274 7.19554 22.1274 6.36967 21.618 5.8603L18.1397 2.38203ZM9.8261 14.1739V12.5403L17.2174 5.14897L18.851 6.78261L11.4597 14.1739H9.8261Z" fill="black"/>
<path d="M4.73604 6.47518C4.81758 6.39364 4.92817 6.34783 5.04348 6.34783H9.68696C10.4073 6.34783 10.9913 5.76385 10.9913 5.04348C10.9913 4.32311 10.4073 3.73914 9.68696 3.73914H5.04348C4.2363 3.73914 3.46218 4.05979 2.89141 4.63055C2.32065 5.20131 2 5.97543 2 6.78261V18.9565C2 19.7637 2.32065 20.5378 2.89141 21.1086C3.46218 21.6794 4.2363 22 5.04348 22H17.2174C18.0246 22 18.7987 21.6794 19.3695 21.1086C19.9402 20.5378 20.2609 19.7637 20.2609 18.9565V14.313C20.2609 13.5927 19.6769 13.0087 18.9565 13.0087C18.2362 13.0087 17.6522 13.5927 17.6522 14.313V18.9565C17.6522 19.0718 17.6064 19.1824 17.5248 19.264C17.4433 19.3455 17.3327 19.3913 17.2174 19.3913H5.04348C4.92817 19.3913 4.81758 19.3455 4.73604 19.264C4.6545 19.1824 4.6087 19.0718 4.6087 18.9565V6.78261C4.6087 6.6673 4.6545 6.55671 4.73604 6.47518Z" fill="black"/>
</svg>
