<svg width="24" height="24" viewBox="0 0 24 24" fill="none" xmlns="http://www.w3.org/2000/svg">
<path fill-rule="evenodd" clip-rule="evenodd" d="M13.2857 4.28571C13.2857 3.57563 13.8613 3 14.5714 3H19.7143C20.4244 3 21 3.57563 21 4.28571V9.42857C21 10.1387 20.4244 10.7143 19.7143 10.7143C19.0042 10.7143 18.4286 10.1387 18.4286 9.42857V7.3897L11.1949 14.6234C10.6927 15.1255 9.87868 15.1255 9.37658 14.6234C8.87447 14.1213 8.87447 13.3073 9.37658 12.8051L16.6103 5.57143H14.5714C13.8613 5.57143 13.2857 4.99579 13.2857 4.28571ZM6 8.14286C5.76722 8.14286 5.57143 8.33865 5.57143 8.57143V18C5.57143 18.1137 5.61658 18.2227 5.69695 18.303C5.77733 18.3834 5.88634 18.4286 6 18.4286H15.4286C15.5422 18.4286 15.6512 18.3834 15.7316 18.303C15.812 18.2227 15.8571 18.1137 15.8571 18V13.7143C15.8571 13.0042 16.4328 12.4286 17.1429 12.4286C17.8529 12.4286 18.4286 13.0042 18.4286 13.7143V18C18.4286 18.7957 18.1125 19.5587 17.5499 20.1213C16.9873 20.6839 16.2242 21 15.4286 21H6C5.20435 21 4.44129 20.6839 3.87868 20.1213C3.31607 19.5587 3 18.7956 3 18V8.57143C3 6.91849 4.34706 5.57143 6 5.57143H10.2857C10.9958 5.57143 11.5714 6.14706 11.5714 6.85714C11.5714 7.56722 10.9958 8.14286 10.2857 8.14286H6Z" fill="black"/>
</svg>
