<svg width="24" height="24" viewBox="0 0 24 24" fill="none" xmlns="http://www.w3.org/2000/svg">
<path d="M8.52176 8.08694C7.80138 8.08694 7.21741 8.67091 7.21741 9.39128C7.21741 10.1117 7.80138 10.6956 8.52176 10.6956H10.2609C10.9813 10.6956 11.5652 10.1117 11.5652 9.39128C11.5652 8.67091 10.9813 8.08694 10.2609 8.08694H8.52176Z" fill="black"/>
<path d="M8.52176 11.5652C7.80138 11.5652 7.21741 12.1492 7.21741 12.8695C7.21741 13.5899 7.80138 14.1739 8.52176 14.1739H15.4783C16.1986 14.1739 16.7826 13.5899 16.7826 12.8695C16.7826 12.1492 16.1986 11.5652 15.4783 11.5652H8.52176Z" fill="black"/>
<path d="M8.52176 15.0435C7.80138 15.0435 7.21741 15.6274 7.21741 16.3478C7.21741 17.0682 7.80138 17.6522 8.52176 17.6522H15.4783C16.1986 17.6522 16.7826 17.0682 16.7826 16.3478C16.7826 15.6274 16.1986 15.0435 15.4783 15.0435H8.52176Z" fill="black"/>
<path fill-rule="evenodd" clip-rule="evenodd" d="M6.78261 2C5.97543 2 5.20131 2.32065 4.63055 2.89141C4.05979 3.46218 3.73914 4.2363 3.73914 5.04348V18.9565C3.73914 20.6334 5.10572 22 6.78261 22H17.2174C18.0246 22 18.7987 21.6793 19.3695 21.1086C19.9402 20.5378 20.2609 19.7637 20.2609 18.9565V8.52174C20.2609 8.1758 20.1235 7.84404 19.8788 7.59943L14.6614 2.38203C14.4168 2.13742 14.0851 2 13.7391 2H6.78261ZM6.47518 4.73604C6.55671 4.6545 6.6673 4.6087 6.78261 4.6087H12.4348V8.52172C12.4348 9.24209 13.0188 9.82607 13.7391 9.82607H17.6522V18.9565C17.6522 19.0718 17.6064 19.1824 17.5248 19.264C17.4433 19.3455 17.3327 19.3913 17.2174 19.3913H6.78261C6.54646 19.3913 6.34783 19.1927 6.34783 18.9565V5.04348C6.34783 4.92817 6.39364 4.81758 6.47518 4.73604Z" fill="black"/>
</svg>
