<svg width="24" height="24" viewBox="0 0 24 24" fill="none" xmlns="http://www.w3.org/2000/svg">
<path fill-rule="evenodd" clip-rule="evenodd" d="M3.42859 4.28571C3.42859 3.57563 4.00422 3 4.7143 3H9.85716C10.5672 3 11.1429 3.57563 11.1429 4.28571C11.1429 4.99579 10.5672 5.57143 9.85716 5.57143H6.00002V18.4286H9.85716C10.5672 18.4286 11.1429 19.0042 11.1429 19.7143C11.1429 20.4244 10.5672 21 9.85716 21H4.7143C4.00422 21 3.42859 20.4244 3.42859 19.7143V4.28571ZM14.0909 6.80515C14.593 6.30305 15.4071 6.30305 15.9092 6.80515L20.1949 11.0909C20.697 11.593 20.697 12.407 20.1949 12.9091L15.9092 17.1949C15.4071 17.697 14.593 17.697 14.0909 17.1949C13.5888 16.6927 13.5888 15.8787 14.0909 15.3766L16.1817 13.2857H9.00002C8.28994 13.2857 7.7143 12.7101 7.7143 12C7.7143 11.2899 8.28994 10.7143 9.00002 10.7143H16.1817L14.0909 8.62342C13.5888 8.12132 13.5888 7.30725 14.0909 6.80515Z" fill="black"/>
</svg>
