<svg width="24" height="24" viewBox="0 0 24 24" fill="none" xmlns="http://www.w3.org/2000/svg">
<path d="M22.0607 4.06066C22.6464 3.47487 22.6464 2.52513 22.0607 1.93934C21.4749 1.35355 20.5251 1.35355 19.9393 1.93934L1.93934 19.9393C1.35355 20.5251 1.35355 21.4749 1.93934 22.0607C2.52513 22.6464 3.47487 22.6464 4.06066 22.0607L22.0607 4.06066Z" fill="black"/>
<path d="M12 3.64001C13.4638 3.64001 14.7855 3.97901 15.9571 4.50738L13.9075 6.557C13.3041 6.37998 12.6677 6.28001 12 6.28001C9.44737 6.28001 7.35211 7.74111 5.81301 9.38282C5.0555 10.1908 4.47055 11.0039 4.07512 11.6161C3.98469 11.7562 3.90462 11.885 3.83511 12C3.90462 12.115 3.98469 12.2439 4.07512 12.3839C4.47055 12.9961 5.0555 13.8092 5.81301 14.6172L5.82959 14.6349L3.9621 16.5024C3.93688 16.4758 3.91186 16.4493 3.88703 16.4228C2.99454 15.4708 2.3145 14.5239 1.85742 13.8161C1.62806 13.461 1.45269 13.1627 1.33282 12.9497C1.27284 12.843 1.22661 12.7575 1.19434 12.6965C1.1782 12.666 1.16553 12.6416 1.15637 12.6237L1.14524 12.602L1.14165 12.5949L1.14035 12.5923L1.13938 12.5903C0.958127 12.2278 0.954105 11.8019 1.12649 11.4363L1.12634 11.4348L1.12764 11.4338L1.13982 11.4088L1.14165 11.4052L1.14524 11.3981L1.15637 11.3763C1.16553 11.3585 1.1782 11.3341 1.19434 11.3036C1.22661 11.2426 1.27284 11.157 1.33282 11.0504C1.45269 10.8373 1.62806 10.539 1.85742 10.1839C2.3145 9.47615 2.99454 8.5292 3.88703 7.57721C5.64794 5.69892 8.39267 3.64001 12 3.64001Z" fill="black"/>
<path d="M12 8.04001C12.1364 8.04001 12.2712 8.04691 12.4041 8.06038L8.06036 12.4041C8.0469 12.2712 8.04 12.1364 8.04 12C8.04 9.81297 9.81295 8.04001 12 8.04001Z" fill="black"/>
<path d="M15.9396 11.5959L11.5959 15.9396C11.7288 15.9531 11.8636 15.96 12 15.96C14.187 15.96 15.96 14.1871 15.96 12C15.96 11.8636 15.9531 11.7288 15.9396 11.5959Z" fill="black"/>
<path d="M12 17.72C11.3323 17.72 10.6959 17.62 10.0925 17.443L8.04291 19.4926C9.21451 20.021 10.5363 20.36 12 20.36C15.6074 20.36 18.3521 18.3011 20.113 16.4228C21.0055 15.4708 21.6855 14.5239 22.1426 13.8161C22.372 13.461 22.5474 13.1627 22.6672 12.9497C22.7272 12.843 22.7734 12.7575 22.8057 12.6965C22.8218 12.666 22.8345 12.6416 22.8437 12.6237L22.8548 12.602L22.8584 12.5949L22.8602 12.5912C23.046 12.2196 23.046 11.7804 22.8602 11.4088L22.8584 11.4052L22.8548 11.3981L22.8437 11.3763C22.8345 11.3585 22.8218 11.3341 22.8057 11.3036C22.7734 11.2426 22.7272 11.157 22.6672 11.0504C22.5474 10.8373 22.372 10.539 22.1426 10.1839C21.6855 9.47615 21.0055 8.5292 20.113 7.57721C20.0882 7.55072 20.0631 7.52419 20.0379 7.49763L18.1704 9.36512L18.187 9.38282C18.9445 10.1908 19.5295 11.0039 19.9249 11.6161C20.0154 11.7562 20.0954 11.885 20.1649 12C20.0954 12.115 20.0154 12.2439 19.9249 12.3839C19.5295 12.9961 18.9445 13.8092 18.187 14.6172C16.6479 16.2589 14.5527 17.72 12 17.72Z" fill="black"/>
</svg>
