<svg width="24" height="24" viewBox="0 0 24 24" fill="none" xmlns="http://www.w3.org/2000/svg">
<path fill-rule="evenodd" clip-rule="evenodd" d="M22.8584 12.5949L22.8602 12.5912C23.046 12.2196 23.046 11.7804 22.8602 11.4088L22.8584 11.4052L22.8548 11.3981L22.8437 11.3763C22.8345 11.3585 22.8218 11.3341 22.8057 11.3036C22.7734 11.2426 22.7272 11.157 22.6672 11.0504C22.5474 10.8373 22.372 10.539 22.1426 10.1839C21.6855 9.47615 21.0055 8.5292 20.113 7.57721C18.3521 5.69892 15.6074 3.64001 12 3.64001C8.39267 3.64001 5.64794 5.69892 3.88703 7.57721C2.99454 8.5292 2.3145 9.47615 1.85742 10.1839C1.62806 10.539 1.45269 10.8373 1.33282 11.0504C1.27284 11.157 1.22661 11.2426 1.19434 11.3036C1.1782 11.3341 1.16553 11.3585 1.15637 11.3763L1.14524 11.3981L1.14165 11.4052L1.13982 11.4088L1.12764 11.4338L1.12634 11.4348L1.12649 11.4363C0.954105 11.8019 0.958127 12.2278 1.13938 12.5903L1.14035 12.5923L1.14165 12.5949L1.14524 12.602L1.15637 12.6237C1.16553 12.6416 1.1782 12.666 1.19434 12.6965C1.22661 12.7575 1.27284 12.843 1.33282 12.9497C1.45269 13.1627 1.62806 13.461 1.85742 13.8161C2.3145 14.5239 2.99454 15.4708 3.88703 16.4228C5.64794 18.3011 8.39267 20.36 12 20.36C15.6074 20.36 18.3521 18.3011 20.113 16.4228C21.0055 15.4708 21.6855 14.5239 22.1426 13.8161C22.372 13.461 22.5474 13.1627 22.6672 12.9497C22.7272 12.843 22.7734 12.7575 22.8057 12.6965C22.8218 12.666 22.8345 12.6416 22.8437 12.6237L22.8548 12.602L22.8584 12.5949ZM3.83511 12C3.90462 12.115 3.98469 12.2439 4.07512 12.3839C4.47055 12.9961 5.0555 13.8092 5.81301 14.6172C7.35211 16.2589 9.44737 17.72 12 17.72C14.5527 17.72 16.6479 16.2589 18.187 14.6172C18.9445 13.8092 19.5295 12.9961 19.9249 12.3839C20.0154 12.2439 20.0954 12.115 20.1649 12C20.0954 11.885 20.0154 11.7562 19.9249 11.6161C19.5295 11.0039 18.9445 10.1908 18.187 9.38282C16.6479 7.74111 14.5527 6.28001 12 6.28001C9.44737 6.28001 7.35211 7.74111 5.81301 9.38282C5.0555 10.1908 4.47055 11.0039 4.07512 11.6161C3.98469 11.7562 3.90462 11.885 3.83511 12Z" fill="black"/>
<path fill-rule="evenodd" clip-rule="evenodd" d="M12 10.68C11.271 10.68 10.68 11.271 10.68 12C10.68 12.729 11.271 13.32 12 13.32C12.729 13.32 13.32 12.729 13.32 12C13.32 11.271 12.729 10.68 12 10.68ZM8.04 12C8.04 9.81297 9.81295 8.04001 12 8.04001C14.187 8.04001 15.96 9.81297 15.96 12C15.96 14.1871 14.187 15.96 12 15.96C9.81295 15.96 8.04 14.1871 8.04 12Z" fill="black"/>
</svg>
