<svg width="24" height="24" viewBox="0 0 24 24" fill="none" xmlns="http://www.w3.org/2000/svg">
<path d="M10.2609 9.82611C10.9813 9.82611 11.5652 10.4101 11.5652 11.1305V16.3478C11.5652 17.0682 10.9813 17.6522 10.2609 17.6522C9.54052 17.6522 8.95654 17.0682 8.95654 16.3478V11.1305C8.95654 10.4101 9.54052 9.82611 10.2609 9.82611Z" fill="black"/>
<path d="M15.0435 11.1305C15.0435 10.4101 14.4595 9.82611 13.7392 9.82611C13.0188 9.82611 12.4348 10.4101 12.4348 11.1305V16.3478C12.4348 17.0682 13.0188 17.6522 13.7392 17.6522C14.4595 17.6522 15.0435 17.0682 15.0435 16.3478V11.1305Z" fill="black"/>
<path fill-rule="evenodd" clip-rule="evenodd" d="M16.7826 5.04348V5.47826H18.087L18.0923 5.47827H19.8261C20.5465 5.47827 21.1304 6.06225 21.1304 6.78262C21.1304 7.50299 20.5465 8.08697 19.8261 8.08697H19.3913V18.9565C19.3913 19.7637 19.0707 20.5378 18.4999 21.1086C17.9291 21.6793 17.155 22 16.3478 22H7.65218C6.845 22 6.07088 21.6793 5.50012 21.1086C4.92935 20.5378 4.6087 19.7637 4.6087 18.9565V8.08697H4.17392C3.45354 8.08697 2.86957 7.50299 2.86957 6.78262C2.86957 6.06225 3.45354 5.47827 4.17392 5.47827H5.9077L5.91305 5.47826H7.2174V5.04348C7.2174 4.2363 7.53805 3.46218 8.10881 2.89141C8.67958 2.32065 9.4537 2 10.2609 2H13.7391C14.5463 2 15.3204 2.32065 15.8912 2.89141C16.462 3.46218 16.7826 4.2363 16.7826 5.04348ZM9.95344 4.73604C10.035 4.6545 10.1456 4.6087 10.2609 4.6087H13.7391C13.8545 4.6087 13.965 4.6545 14.0466 4.73604C14.1281 4.81758 14.1739 4.92817 14.1739 5.04348V5.47826H9.8261V5.04348C9.8261 4.92817 9.8719 4.81758 9.95344 4.73604ZM7.2174 8.08697V18.9565C7.2174 19.0718 7.26321 19.1824 7.34474 19.264C7.42628 19.3455 7.53687 19.3913 7.65218 19.3913H16.3478C16.4631 19.3913 16.5737 19.3455 16.6553 19.264C16.7368 19.1824 16.7826 19.0718 16.7826 18.9565V8.08697H7.2174Z" fill="black"/>
</svg>
