<svg width="24" height="24" viewBox="0 0 24 24" fill="none" xmlns="http://www.w3.org/2000/svg">
<path fill-rule="evenodd" clip-rule="evenodd" d="M12 2C6.47715 2 2 6.47715 2 12C2 17.5228 6.47715 22 12 22C17.5228 22 22 17.5228 22 12C22 6.47715 17.5228 2 12 2ZM4.6087 12C4.6087 7.9179 7.9179 4.6087 12 4.6087C16.0821 4.6087 19.3913 7.9179 19.3913 12C19.3913 13.504 18.9421 14.9031 18.1705 16.0705C17.9305 15.6879 17.6503 15.3546 17.3264 15.0761C16.5788 14.4334 15.704 14.1739 14.8347 14.1739H12.0173C14.1704 14.1646 15.9131 12.4162 15.9131 10.2609C15.9131 8.09977 14.1611 6.34784 12 6.34784C9.8389 6.34784 8.08698 8.09977 8.08698 10.2609C8.08698 12.4162 9.82959 14.1646 11.9828 14.1739H9.16517C8.29592 14.1739 7.42112 14.4334 6.67354 15.0761C6.34964 15.3546 6.0694 15.6879 5.82948 16.0704C5.05791 14.9031 4.6087 13.504 4.6087 12ZM7.75152 18.049C8.95342 18.8947 10.4187 19.3913 12 19.3913C13.5813 19.3913 15.0465 18.8948 16.2484 18.0491C16.0446 17.5137 15.8152 17.2172 15.6257 17.0543C15.4124 16.8709 15.1655 16.7826 14.8347 16.7826H9.16517C8.83442 16.7826 8.58749 16.8709 8.3742 17.0543C8.18467 17.2172 7.9553 17.5137 7.75152 18.049ZM12 8.95654C11.2796 8.95654 10.6957 9.54051 10.6957 10.2609C10.6957 10.9813 11.2796 11.5652 12 11.5652C12.7204 11.5652 13.3044 10.9813 13.3044 10.2609C13.3044 9.54051 12.7204 8.95654 12 8.95654Z" fill="black"/>
</svg>
